<mxfile host="app.diagrams.net" modified="2024-06-05T09:13:47.889Z" agent="Mozilla/5.0 (Windows NT 10.0; Win64; x64) AppleWebKit/537.36 (KHTML, like Gecko) Chrome/125.0.0.0 Safari/537.36 Edg/125.0.0.0" etag="HW2I9eXHkcBtOzPwL5pC" version="24.4.13" type="github">
  <diagram name="Page-1" id="b33cb84f-bf7a-9ccf-f142-242d16432e5d">
    <mxGraphModel dx="1631" dy="933" grid="1" gridSize="10" guides="1" tooltips="1" connect="1" arrows="1" fold="1" page="1" pageScale="1.5" pageWidth="1169" pageHeight="826" background="none" math="0" shadow="0">
      <root>
        <mxCell id="0" style=";html=1;" />
        <mxCell id="1" style=";html=1;" parent="0" />
        <mxCell id="RNzauCnBaGWROn3aYV8l-2" value="Snowflake Layers:&lt;div&gt;Storage&lt;br&gt;Query processing&lt;/div&gt;&lt;div style=&quot;&quot;&gt;Cloud Service&lt;/div&gt;" style="rounded=1;whiteSpace=wrap;html=1;align=left;" vertex="1" parent="1">
          <mxGeometry x="640" y="280" width="120" height="60" as="geometry" />
        </mxCell>
      </root>
    </mxGraphModel>
  </diagram>
</mxfile>
